# Blender v2.79 (sub 0) OBJ File: ''
# www.blender.org
o Cube.001
v -1.000000 -1.000000 -1.000000
v 1.000000 -1.000000 1.000000
v 1.000000 -1.000000 -1.000000
v 0.999999 1.000000 1.000001
v -1.000000 1.000000 -1.000000
v 1.000000 1.000000 -0.999999
v -1.000000 -1.000000 1.000000
v -1.000000 1.000000 1.000000
vt 0.750000 0.749827
vt 0.999913 0.499913
vt 0.999913 0.749827
vt 0.999913 0.250000
vt 0.750000 0.000087
vt 0.999913 0.000087
vt 0.749827 0.000087
vt 0.499913 0.250000
vt 0.499913 0.000087
vt 0.750000 0.499913
vt 0.000087 0.000087
vt 0.250000 0.250000
vt 0.000087 0.250000
vt 0.750000 0.250000
vt 0.749827 0.250000
vt 0.250000 0.000087
vn 0.5774 0.5774 0.5774
vn -0.5774 0.5774 -0.5774
vn -0.5774 0.5774 0.5774
vn -0.5773 -0.5774 -0.5774
vn 0.5774 -0.5774 0.5774
vn -0.5774 -0.5774 0.5773
vn 0.5774 0.5774 -0.5774
vn 0.5774 -0.5774 -0.5774
s 1
f 1/1/1 2/2/2 3/3/3
f 4/4/4 5/5/5 6/6/6
f 2/7/2 6/8/6 3/9/3
f 7/10/7 4/4/4 2/2/2
f 7/11/7 5/12/5 8/13/8
f 5/12/5 3/9/3 6/8/6
f 1/1/1 7/10/7 2/2/2
f 4/4/4 8/14/8 5/5/5
f 2/7/2 4/15/4 6/8/6
f 7/10/7 8/14/8 4/4/4
f 7/11/7 1/16/1 5/12/5
f 5/12/5 1/16/1 3/9/3
